<?xml version="1.0" encoding="utf-8"?>
<!-- Generator: Adobe Illustrator 16.0.0, SVG Export Plug-In . SVG Version: 6.00 Build 0)  -->
<!DOCTYPE svg PUBLIC "-//W3C//DTD SVG 1.1//EN" "http://www.w3.org/Graphics/SVG/1.1/DTD/svg11.dtd">
<svg version="1.1" id="Layer_1" xmlns="http://www.w3.org/2000/svg" xmlns:xlink="http://www.w3.org/1999/xlink" x="0px" y="0px"
	 width="800px" height="800px" viewBox="0 0 800 800" enable-background="new 0 0 800 800" xml:space="preserve">
<path fill="#4169e1" d="M403.871,14.313c70.793,0,141.596-0.725,212.371,0.29c38.727,0.557,75.262,10.657,106.547,35.045
	c38.832,30.27,59.12,70.583,64.159,119.136c1.487,14.33,1.913,28.666,1.906,43.055c-0.057,128.996,0.123,257.995-0.122,386.991
	c-0.073,39.848-6.874,78.245-30.183,111.882c-31.124,44.92-75.022,67.259-128.729,72.164c-14.951,1.364-29.895,1.573-44.876,1.57
	c-126.896-0.02-253.794,0.202-380.69-0.142c-38.194-0.104-75.302-6.176-108.204-27.568c-41.81-27.186-66.27-65.709-74.181-114.843
	c-2.912-18.079-3.704-36.284-3.687-54.594c0.119-129.295-0.053-258.594,0.133-387.888c0.058-39.879,6.89-78.28,30.163-111.869
	c30.458-43.956,73.305-66.541,126.042-71.804c15.546-1.551,31.077-1.865,46.656-1.857c60.897,0.033,121.795,0.012,182.695,0.012
	C403.871,14.033,403.871,14.174,403.871,14.313z M360.681,391.589c16.286-8.076,26.958-18.783,28.601-36.082
	c2.449-25.823-13.893-45.127-42.429-49.869c-22.399-3.721-44.839-2.026-67.237,0.563c-4.775,0.551-7.193,2.104-7.17,7.82
	c0.239,57.29,0.197,114.581,0.053,171.869c-0.014,4.974,1.558,6.604,6.532,7.154c16.761,1.842,33.545,2.103,50.315,1.097
	c12.898-0.773,25.608-3.04,37.377-8.895c21.992-10.943,33.016-33.628,28.019-57.706
	C390.973,409.357,378.901,398.639,360.681,391.589z M249.501,396.247c-0.099-7.645-0.723-17.198-2.784-26.628
	c-8.254-37.813-33.333-62.042-69.454-67.022c-33.919-4.674-66.953,12.182-82.447,44.043c-16.973,34.899-17.551,71.005-0.328,105.869
	c26.662,53.976,104.242,58.171,137.865,8.088C245.012,441.743,249.246,420.51,249.501,396.247z M678.887,495.677
	c7.158-0.657,14.386-0.865,21.454-2.056c23.73-3.994,23.546-4.093,18.487-27.56c-1.03-4.78-2.189-5.872-6.952-4.033
	c-9.885,3.816-20.368,4.919-30.909,4.787c-28.275-0.348-48.594-14.514-56.716-39.885c-6.122-19.122-5.95-38.441,0.686-57.392
	c7.219-20.613,21.777-33.124,43.324-37.461c10.772-2.168,21.4-1.345,32.145,0.323c5.722,0.89,12.371,6.87,16.485,2.903
	c3.896-3.757,3.383-11.773,5.721-17.543c2.758-6.8-0.416-8.924-6.167-10.615c-19.664-5.783-39.528-6.942-59.502-2.373
	c-41.271,9.44-66.833,39.998-70.618,86.553C581.588,449.624,613.446,496.354,678.887,495.677z M487.341,380.594
	c0-19.627,0.126-35.221-0.057-50.807c-0.088-7.744,3.277-17.775-1.325-22.633c-5.043-5.318-15.317-0.898-23.218-1.909
	c-6.909-0.882-8.488,1.865-8.442,8.495c0.277,38.071,0.413,76.15-0.048,114.217c-0.402,33.18-11.569,42.14-44.395,36.631
	c-3.675-0.615-5.246-0.321-6.146,3.756c-5.061,22.878-3,25.752,20.392,26.905c2.689,0.132,5.401,0.123,8.091-0.005
	c30.755-1.474,47.416-15.557,52.976-45.996C489.553,425.2,486.462,400.788,487.341,380.594z M539.988,409.584
	c5.97,0,11.945,0,17.916,0.002c16.654,0,16.318-0.005,16.568-16.401c0.1-6.504-2.1-8.045-8.187-7.878
	c-14.319,0.396-28.659,0.125-42.992,0.125c-18.358,0-18.199-0.011-16.977,18.627c0.284,4.337,1.793,5.664,5.902,5.584
	C521.475,409.454,530.733,409.582,539.988,409.584z"/>
<path fill="#4169e1" d="M304.928,436.723c-0.001-5.699-0.081-11.4,0.014-17.098c0.251-15.042-2.377-12.861,13.545-13.019
	c9.059-0.091,17.944,0.925,26.351,4.682c11.094,4.96,16.408,13.912,16.573,25.617c0.169,11.966-4.64,21.648-15.956,27.008
	c-11.534,5.463-23.799,5.272-36.17,4.24c-4.364-0.362-4.396-3.047-4.375-6.234C304.971,453.521,304.93,445.121,304.928,436.723z"/>
<path fill="#4169e1" d="M304.93,356.001c0-6.584,0.258-13.183-0.088-19.749c-0.247-4.709,1.839-6.461,6.143-6.736
	c8.978-0.577,17.934-1.022,26.774,1.267c11.156,2.89,17.681,9.863,18.858,20.192c1.303,11.413-3.564,20.775-13.568,26.081
	c-10.891,5.776-22.72,4.206-34.326,4.36c-4.107,0.055-3.778-2.962-3.787-5.661C304.916,369.173,304.93,362.584,304.93,356.001z"/>
<path fill="#4169e1" d="M214.856,398.516c0.036,16.421-2.515,32.272-11.078,46.602c-18.195,30.451-58.315,30.739-75.373-0.367
	c-16.563-30.208-16.19-62.024,0.186-92.064c17.048-31.275,57.132-30.63,75.225,0.122
	C212.099,366.886,215.022,382.35,214.856,398.516z"/>
</svg>
